<?xml version="1.0" standalone="no"?>
<!DOCTYPE svg PUBLIC "-//W3C//DTD SVG 20010904//EN"
 "http://www.w3.org/TR/2001/REC-SVG-20010904/DTD/svg10.dtd">
<svg version="1.0" xmlns="http://www.w3.org/2000/svg"
 width="558.000000pt" height="447.000000pt" viewBox="0 0 558.000000 447.000000"
 preserveAspectRatio="xMidYMid meet">

<g transform="translate(0.000000,447.000000) scale(0.100000,-0.100000)"
fill="#000000" stroke="none">
<path d="M4133 4152 c-67 -63 -213 -201 -391 -369 l-77 -73 -812 0 -812 0 -11
-37 c-88 -313 -131 -470 -259 -933 -153 -550 -220 -792 -272 -975 -15 -55 -35
-125 -43 -155 -8 -30 -37 -137 -65 -238 -28 -101 -51 -185 -51 -188 0 -2 362
-4 805 -4 760 0 805 -1 805 -17 0 -10 -7 -189 -15 -398 -17 -448 -18 -543 -6
-530 7 8 361 655 698 1275 20 36 48 88 63 115 15 28 73 134 129 236 55 103
101 189 101 193 0 3 -494 6 -1097 6 -622 0 -1093 4 -1087 9 5 4 72 22 149 39
77 17 292 65 479 106 186 42 340 77 341 78 2 2 42 140 91 308 48 168 91 311
97 318 7 9 106 12 444 12 240 -1 437 1 439 3 4 4 32 84 264 767 81 239 154
454 163 478 8 23 12 42 8 42 -3 0 -38 -30 -78 -68z"/>
</g>
</svg>
